<svg width="24" height="24" viewBox="0 0 24 24" fill="none" xmlns="http://www.w3.org/2000/svg">
<path fill-rule="evenodd" clip-rule="evenodd" d="M9.45332 3.35117C9.89809 3.25639 10.2965 3.61138 10.2965 4.06614C10.2965 4.44372 10.0176 4.75995 9.64952 4.84431C6.12733 5.65159 3.5 8.80499 3.5 12.572C3.5 16.9505 7.04948 20.5 11.428 20.5C15.19 20.5 18.3399 17.8798 19.1524 14.3647C19.2374 13.9973 19.5533 13.7191 19.9304 13.7191C20.3858 13.7191 20.7409 14.1185 20.6452 14.5637C19.7312 18.8141 15.9516 22 11.428 22C6.22105 22 2 17.779 2 12.572C2 8.04238 5.19439 4.25881 9.45332 3.35117Z" fill="#1B1B1B"/>
<mask id="mask0_102_10249" style="mask-type:alpha" maskUnits="userSpaceOnUse" x="12" y="2" width="10" height="10">
<path d="M20.0146 12C21.1192 12 22.0348 11.0958 21.8153 10.0133C21.6879 9.38481 21.5 8.76851 21.2534 8.17319C20.7509 6.95993 20.0143 5.85754 19.0857 4.92895C18.1571 4.00037 17.0547 3.26377 15.8415 2.76122C15.2462 2.51463 14.6299 2.32676 14.0014 2.19936C12.9188 1.97991 12.0146 2.89545 12.0146 4.00002V10C12.0146 11.1046 12.9101 12 14.0146 12H20.0146Z" fill="white"/>
</mask>
<g mask="url(#mask0_102_10249)">
<path d="M20.0146 12C21.1192 12 22.0348 11.0958 21.8153 10.0133C21.6879 9.38481 21.5 8.76851 21.2534 8.17319C20.7509 6.95993 20.0143 5.85754 19.0857 4.92895C18.1571 4.00037 17.0547 3.26377 15.8415 2.76122C15.2462 2.51463 14.6299 2.32676 14.0014 2.19936C12.9188 1.97991 12.0146 2.89545 12.0146 4.00002V10C12.0146 11.1046 12.9101 12 14.0146 12H20.0146Z" stroke="#1B1B1B" stroke-width="3"/>
</g>
</svg>
