<svg width="136" height="32" viewBox="0 0 136 32" fill="none" xmlns="http://www.w3.org/2000/svg">
<path fill-rule="evenodd" clip-rule="evenodd" d="M115.809 9.89474C116.041 9.83478 116.285 9.81437 116.542 9.83373C116.562 14.7678 116.542 19.6917 116.481 24.6051C116.481 19.7017 116.481 14.7982 116.481 9.89474C116.257 9.89474 116.033 9.89474 115.809 9.89474Z" fill="#2B6777"/>
<path fill-rule="evenodd" clip-rule="evenodd" d="M115.806 9.89575C116.03 9.89575 116.254 9.89575 116.479 9.89575C116.479 14.7992 116.479 19.7027 116.479 24.6061C116.467 24.9492 116.406 25.2747 116.295 25.5828C116.275 25.2715 116.305 24.9663 116.387 24.6672C116.428 19.8654 116.428 15.0637 116.387 10.262C116.314 10.1971 116.283 10.1157 116.295 10.0178C115.966 9.99783 115.64 10.0182 115.317 10.0789C115.032 10.2097 114.746 10.2504 114.461 10.2009C114.885 10.0264 115.334 9.92475 115.806 9.89575Z" fill="#2B6777"/>
<path fill-rule="evenodd" clip-rule="evenodd" d="M116.292 25.5829C115.826 27.6021 114.664 29.0772 112.807 30.0082C112.553 30.1351 112.288 30.2267 112.012 30.2829C111.686 30.2728 111.359 30.2829 111.034 30.3134C110.741 30.4375 110.435 30.4883 110.117 30.466C110.107 25.5828 110.117 20.6997 110.148 15.8167C110.174 15.1837 110.296 14.5733 110.514 13.9855C110.62 14.0497 110.681 14.0091 110.698 13.8634C110.723 13.8913 110.754 13.9117 110.79 13.9245C110.822 13.7658 110.833 13.6031 110.82 13.4361C111.04 13.2367 111.214 13.0027 111.34 12.7342C111.312 12.7089 111.292 12.6784 111.279 12.6426C111.371 12.5607 111.411 12.459 111.401 12.3374C112.184 11.2948 113.204 10.5826 114.458 10.2011C114.744 10.2505 115.029 10.2098 115.314 10.079C115.638 10.0182 115.964 9.99792 116.292 10.018C116.281 10.1158 116.311 10.1972 116.384 10.2621C116.425 15.0638 116.425 19.8656 116.384 24.6673C116.302 24.9664 116.272 25.2717 116.292 25.5829Z" fill="#2B6777"/>
<path fill-rule="evenodd" clip-rule="evenodd" d="M111.402 12.3374C111.413 12.459 111.372 12.5607 111.28 12.6426C111.293 12.6784 111.313 12.7089 111.341 12.7341C111.215 13.0027 111.042 13.2366 110.822 13.4361C110.834 13.603 110.823 13.7658 110.791 13.9244C110.755 13.9117 110.724 13.8913 110.699 13.8633C110.682 14.009 110.621 14.0496 110.516 13.9855C110.297 14.5732 110.175 15.1836 110.149 15.8166C110.118 20.6997 110.108 25.5828 110.118 30.466C110.436 30.4883 110.742 30.4375 111.035 30.3133C111.361 30.2829 111.687 30.2727 112.014 30.2828C111.553 30.4833 111.064 30.5851 110.546 30.588C110.363 30.588 110.18 30.588 109.996 30.588C109.996 25.766 109.996 20.9439 109.996 16.1218C110.032 14.6906 110.501 13.4291 111.402 12.3374Z" fill="#2B6777"/>
<path fill-rule="evenodd" clip-rule="evenodd" d="M125.467 9.7734C125.699 9.71344 125.943 9.69303 126.2 9.71239C126.22 14.6464 126.2 19.5703 126.139 24.4838C126.139 19.5804 126.139 14.6769 126.139 9.7734C125.915 9.7734 125.691 9.7734 125.467 9.7734Z" fill="#2B6777"/>
<path fill-rule="evenodd" clip-rule="evenodd" d="M125.464 9.77295C125.688 9.77295 125.912 9.77295 126.137 9.77295C126.137 14.6764 126.137 19.5799 126.137 24.4833C126.125 24.8264 126.064 25.1519 125.953 25.46C125.933 25.1487 125.964 24.8435 126.045 24.5444C126.086 19.7426 126.086 14.9409 126.045 10.1392C125.972 10.0743 125.942 9.99286 125.953 9.89501C125.625 9.87502 125.299 9.89535 124.975 9.95607C124.69 10.0869 124.405 10.1276 124.119 10.0781C124.543 9.90364 124.992 9.80195 125.464 9.77295Z" fill="#2B6777"/>
<path fill-rule="evenodd" clip-rule="evenodd" d="M125.956 25.461C125.489 27.4802 124.328 28.9553 122.471 29.8864C122.217 30.0133 121.952 30.1048 121.676 30.1611C121.35 30.1509 121.024 30.1611 120.698 30.1916C120.405 30.3156 120.099 30.3665 119.781 30.3442C119.771 25.461 119.781 20.5779 119.812 15.6948C119.838 15.0619 119.96 14.4515 120.178 13.8636C120.284 13.9279 120.345 13.8872 120.362 13.7416C120.387 13.7695 120.418 13.7898 120.454 13.8026C120.486 13.644 120.497 13.4812 120.484 13.3143C120.704 13.1148 120.878 12.8809 121.004 12.6124C120.976 12.5871 120.956 12.5566 120.943 12.5208C121.035 12.4389 121.075 12.3372 121.065 12.2156C121.848 11.173 122.868 10.4608 124.122 10.0792C124.407 10.1287 124.693 10.088 124.978 9.95718C125.301 9.89642 125.628 9.8761 125.956 9.89613C125.944 9.99397 125.975 10.0754 126.048 10.1403C126.089 14.942 126.089 19.7437 126.048 24.5455C125.967 24.8446 125.936 25.1498 125.956 25.461Z" fill="#2B6777"/>
<path fill-rule="evenodd" clip-rule="evenodd" d="M121.063 12.2153C121.073 12.3369 121.032 12.4386 120.94 12.5205C120.953 12.5563 120.973 12.5868 121.001 12.6121C120.876 12.8806 120.702 13.1145 120.482 13.314C120.494 13.481 120.484 13.6437 120.451 13.8023C120.415 13.7896 120.384 13.7692 120.359 13.7413C120.342 13.8869 120.281 13.9276 120.176 13.8634C119.958 14.4512 119.835 15.0616 119.809 15.6945C119.779 20.5776 119.768 25.4607 119.779 30.3439C120.097 30.3662 120.402 30.3154 120.696 30.1913C121.021 30.1608 121.347 30.1506 121.674 30.1608C121.213 30.3613 120.724 30.463 120.207 30.4659C120.023 30.4659 119.84 30.4659 119.656 30.4659C119.656 25.6439 119.656 20.8218 119.656 15.9997C119.692 14.5685 120.161 13.307 121.063 12.2153Z" fill="#2B6777"/>
<path fill-rule="evenodd" clip-rule="evenodd" d="M135.127 9.65085C135.359 9.59085 135.604 9.57048 135.861 9.58984C135.881 14.5239 135.861 19.4477 135.799 24.3612C135.799 19.4578 135.799 14.5543 135.799 9.65085C135.575 9.65085 135.351 9.65085 135.127 9.65085Z" fill="#2B6777"/>
<path fill-rule="evenodd" clip-rule="evenodd" d="M135.128 9.65039C135.353 9.65039 135.577 9.65039 135.801 9.65039C135.801 14.5538 135.801 19.4573 135.801 24.3608C135.789 24.7038 135.728 25.0293 135.617 25.3374C135.597 25.0262 135.628 24.721 135.709 24.4218C135.75 19.6201 135.75 14.8184 135.709 10.0166C135.637 9.95176 135.606 9.8703 135.617 9.77245C135.289 9.75247 134.963 9.77279 134.639 9.83351C134.354 9.96433 134.069 10.005 133.783 9.95557C134.208 9.78109 134.657 9.67939 135.128 9.65039Z" fill="#2B6777"/>
<path fill-rule="evenodd" clip-rule="evenodd" d="M135.615 25.3375C135.148 27.3567 133.986 28.8318 132.13 29.7629C131.876 29.8897 131.611 29.9813 131.335 30.0375C131.008 30.0274 130.682 30.0376 130.357 30.068C130.063 30.1922 129.758 30.243 129.439 30.2206C129.429 25.3375 129.439 20.4544 129.47 15.5713C129.497 14.9383 129.619 14.3279 129.837 13.7401C129.942 13.8043 130.003 13.7637 130.02 13.618C130.046 13.6459 130.076 13.6663 130.112 13.6791C130.145 13.5204 130.155 13.3577 130.143 13.1908C130.363 12.9913 130.536 12.7574 130.663 12.4888C130.634 12.4636 130.614 12.433 130.601 12.3973C130.693 12.3154 130.734 12.2137 130.723 12.0921C131.507 11.0494 132.526 10.3373 133.781 9.95571C134.066 10.0052 134.351 9.96442 134.636 9.83364C134.96 9.77289 135.286 9.75256 135.615 9.77259C135.603 9.87044 135.634 9.95185 135.706 10.0168C135.747 14.8185 135.747 19.6202 135.706 24.4219C135.625 24.7211 135.594 25.0263 135.615 25.3375Z" fill="#2B6777"/>
<path fill-rule="evenodd" clip-rule="evenodd" d="M130.721 12.0918C130.731 12.2134 130.69 12.3151 130.598 12.397C130.611 12.4328 130.632 12.4633 130.66 12.4885C130.533 12.7571 130.36 12.991 130.14 13.1905C130.152 13.3574 130.142 13.5201 130.109 13.6788C130.073 13.6661 130.043 13.6456 130.017 13.6177C130 13.7634 129.939 13.804 129.834 13.7398C129.616 14.3276 129.494 14.938 129.467 15.571C129.437 20.4541 129.426 25.3372 129.437 30.2203C129.755 30.2427 130.06 30.1919 130.354 30.0677C130.679 30.0373 131.005 30.0271 131.332 30.0372C130.872 30.2377 130.383 30.3395 129.865 30.3424C129.681 30.3424 129.498 30.3424 129.314 30.3424C129.314 25.5203 129.314 20.6983 129.314 15.8762C129.351 14.445 129.819 13.1835 130.721 12.0918Z" fill="#2B6777"/>
<path d="M16.1822 17.105C16.521 17.1377 16.7615 17.1869 16.9036 17.2523C17.0457 17.3178 17.1167 17.4105 17.1167 17.5306C17.1167 17.7052 17.0129 17.8907 16.8052 18.0871C16.6085 18.2835 16.3516 18.4854 16.0346 18.6927C15.7177 18.9001 15.3734 19.102 15.0017 19.2984C14.6301 19.4948 14.2694 19.6749 13.9197 19.8385C13.5808 19.9913 13.2802 20.1277 13.0179 20.2478C12.7556 20.3569 12.5807 20.4278 12.4932 20.4605C12.6354 20.3078 12.7009 20.1823 12.69 20.084C12.69 19.9749 12.6517 19.8876 12.5752 19.8221C12.4878 19.7458 12.3675 19.6858 12.2145 19.6421C12.0943 19.6203 11.8593 19.6148 11.5095 19.6257C11.1597 19.6366 10.7335 19.6639 10.2307 19.7076C9.72791 19.7403 9.16498 19.784 8.54198 19.8385C7.92986 19.8931 7.29592 19.9422 6.64011 19.9859L6.37778 28.3665C6.62919 28.552 6.92975 28.6829 7.27955 28.7593C7.6293 28.8357 7.99001 28.8739 8.36163 28.8739C8.73325 28.8739 9.09942 28.8521 9.46012 28.8084C9.82079 28.7538 10.1433 28.6938 10.4275 28.6284C10.7663 28.552 11.0832 28.4647 11.3784 28.3665C10.9411 28.7375 10.4438 29.1194 9.88639 29.5122C9.33987 29.8942 8.75512 30.2489 8.13209 30.5762C7.50905 30.8927 6.85324 31.1491 6.16465 31.3455C5.48697 31.5528 4.79837 31.6565 4.09882 31.6565C3.89115 31.6565 3.67801 31.6292 3.45942 31.5747C3.25174 31.5201 3.06593 31.4219 2.90199 31.2801C2.73802 31.1491 2.60139 30.969 2.49209 30.7399C2.39372 30.5108 2.35546 30.2215 2.37732 29.8724C2.37732 29.665 2.38825 29.1794 2.41012 28.4156C2.42104 28.0882 2.43197 27.6899 2.4429 27.2207C2.45383 26.7515 2.46477 26.184 2.4757 25.5184C2.49756 24.8527 2.51941 24.0834 2.54128 23.2104C2.56314 22.3265 2.59046 21.3171 2.62325 20.1823H2.14779L2.62325 19.9204L2.91836 8.98629H2.75442C2.26255 8.98629 1.78163 8.9808 1.31163 8.96991C0.852557 8.95901 0.415347 8.94263 0 8.9208L4.45953 6.51464C4.87489 6.5692 5.29024 6.60741 5.7056 6.62924C6.12091 6.64014 6.53627 6.64559 6.95162 6.64559C7.43254 6.64559 8.02825 6.63469 8.73871 6.61286C9.46012 6.58013 10.2198 6.54192 11.0177 6.49829C11.8156 6.45463 12.6189 6.41097 13.4278 6.36735C14.2366 6.31279 14.9744 6.26913 15.6411 6.2364C16.3188 6.19274 16.8817 6.16546 17.3299 6.15456C17.778 6.13273 18.0458 6.12724 18.1332 6.13818C18.2972 6.16001 18.3573 6.2364 18.3136 6.36735C18.2698 6.48736 18.1551 6.64014 17.9693 6.82564C17.7944 7.01115 17.5649 7.21848 17.2807 7.44765C16.9965 7.66588 16.6904 7.88416 16.3626 8.10239C16.0456 8.32062 15.7286 8.52796 15.4116 8.7244C15.0946 8.9099 14.805 9.06268 14.5426 9.18269C14.7066 8.66984 14.2257 8.41339 13.0999 8.41339C12.1052 8.41339 11.1106 8.4625 10.1159 8.56068C9.13219 8.64801 8.09931 8.73529 7.01722 8.82258L6.70571 18.0053C8.65128 17.7543 10.2361 17.5688 11.4603 17.4488C12.6955 17.3178 13.6628 17.225 14.3623 17.1705C15.1821 17.1159 15.7887 17.0941 16.1822 17.105ZM27.3146 0C27.3146 0.316494 27.3201 0.62201 27.331 0.916673C27.3419 1.20036 27.3474 1.47864 27.3474 1.75143C27.3474 2.39527 27.2927 2.94634 27.1835 3.40463C27.0742 3.86297 26.8173 4.22853 26.4129 4.50132C26.1724 4.67593 25.8718 4.87782 25.5111 5.10698C24.91 5.49978 23.9427 6.09996 22.6092 6.90748C22.7403 6.5583 22.8332 6.13818 22.8879 5.64712C22.9535 5.14516 22.9972 4.67048 23.0191 4.22308C23.0409 3.69929 23.0409 3.15367 23.0191 2.58622C23.7077 2.22615 24.3143 1.89331 24.8389 1.58775C25.3636 1.2713 25.8117 0.993021 26.1833 0.752958C26.6206 0.480168 26.9976 0.229168 27.3146 0ZM33.0858 27.8918C31.8397 28.7102 30.7795 29.354 29.9051 29.8232C29.0416 30.2925 28.2984 30.6417 27.6753 30.8708C27.0523 31.1 26.5276 31.2309 26.1014 31.2637C25.6751 31.2964 25.2871 31.2801 24.9373 31.2146C24.6203 31.16 24.3088 31.0782 24.0028 30.969C23.6967 30.8599 23.418 30.6635 23.1666 30.3798C22.9261 30.0851 22.7294 29.665 22.5764 29.1194C22.4234 28.5738 22.3468 27.8318 22.3468 26.8933C22.3468 26.1076 22.3687 25.3329 22.4124 24.569C22.4561 23.7942 22.4999 23.0304 22.5436 22.2774C22.5982 21.5136 22.6365 20.7606 22.6584 20.0186C22.6911 19.2656 22.6966 18.5182 22.6747 17.7761C22.6529 17.0559 22.5217 16.5321 22.2812 16.2047C22.0408 15.8665 21.6801 15.6973 21.1992 15.6973C21.0134 15.6973 20.8111 15.7192 20.5925 15.7628C20.3739 15.8064 20.1389 15.8719 19.8875 15.9592C20.281 15.6864 20.6855 15.4136 21.1008 15.1408C21.5161 14.8571 21.9369 14.6061 22.3632 14.3879C22.7895 14.1696 23.2158 13.995 23.6421 13.8641C24.0793 13.7222 24.511 13.6513 24.9373 13.6513C25.3964 13.6513 25.7953 13.755 26.1342 13.9623C26.4839 14.1696 26.708 14.5134 26.8064 14.9935C26.8392 15.179 26.861 15.4518 26.8719 15.8119C26.8938 16.172 26.9048 16.5921 26.9048 17.0723C26.9048 17.7815 26.8883 18.5672 26.8556 19.4293C26.8337 20.2914 26.8064 21.1426 26.7736 21.9828C26.7408 22.8121 26.708 23.5814 26.6752 24.2907C26.6424 24.9891 26.6206 25.5293 26.6096 25.9112C26.5987 26.2713 26.6643 26.6314 26.8064 26.9915C26.9485 27.3516 27.1561 27.679 27.4294 27.9736C27.7136 28.2573 28.0579 28.4919 28.4623 28.6775C28.8777 28.8521 29.3477 28.9394 29.8723 28.9394C30.3314 28.9394 30.8287 28.8575 31.3643 28.6938C31.8999 28.5302 32.4737 28.2628 33.0858 27.8918ZM39.2668 28.7593L35.3484 31.5747C35.4467 29.4686 35.5232 27.6735 35.5779 26.1895C35.6325 24.7054 35.6708 23.4832 35.6927 22.5229C35.7254 21.399 35.7418 20.4714 35.7418 19.7403C35.7965 18.4199 35.6161 17.3887 35.2008 16.6467C34.7854 15.8937 34.1515 15.5173 33.2989 15.5173C33.0257 15.5173 32.736 15.5609 32.43 15.6482C32.1349 15.7246 31.8179 15.8392 31.479 15.992C31.9053 15.6864 32.3534 15.3754 32.8234 15.059C33.2934 14.7316 33.7744 14.437 34.2662 14.1751C34.7581 13.9132 35.25 13.7004 35.7418 13.5367C36.2446 13.3621 36.7365 13.2748 37.2174 13.2748C37.6765 13.2748 38.0918 13.3676 38.4634 13.5531C38.846 13.7386 39.1357 14.0496 39.3324 14.4861C39.5073 14.8571 39.6275 15.2718 39.6931 15.7301C39.7696 16.1884 39.8188 16.6903 39.8407 17.236C40.3981 16.6467 41.021 16.0956 41.7097 15.5828C42.4094 15.0699 43.1359 14.6334 43.8902 14.2733C44.6444 13.9132 45.4041 13.6458 46.1693 13.4712C46.9344 13.2966 47.6559 13.253 48.3333 13.3403C48.8253 13.4057 49.3335 13.5422 49.8582 13.7495C50.3937 13.9568 50.8802 14.2733 51.3176 14.6989C51.7654 15.1244 52.1264 15.6864 52.3996 16.3848C52.6728 17.0723 52.7983 17.9343 52.7765 18.971C52.7438 20.1932 52.6892 21.3171 52.6128 22.3429C52.536 23.3577 52.4978 24.258 52.4978 25.0437C52.4978 25.5129 52.536 25.9603 52.6128 26.3859C52.6892 26.8006 52.8202 27.1661 53.0061 27.4826C53.2029 27.7881 53.4653 28.0337 53.7931 28.2192C54.1209 28.4047 54.5309 28.4974 55.0228 28.4974C55.4598 28.4974 55.9189 28.4156 56.3999 28.2519C56.8919 28.0773 57.3838 27.8154 57.8757 27.4662C57.0778 28.1755 56.3454 28.7702 55.6785 29.2504C55.0229 29.7305 54.4105 30.1179 53.8422 30.4125C53.2739 30.7072 52.7438 30.9145 52.2519 31.0345C51.7599 31.1654 51.2844 31.2255 50.8256 31.2146C50.3665 31.2037 49.9732 31.1109 49.645 30.9363C49.3172 30.7726 49.0548 30.5162 48.858 30.167C48.6611 29.8069 48.5247 29.3486 48.4483 28.7921C48.3715 28.2246 48.3442 27.5317 48.3661 26.7132C48.3992 25.9931 48.4429 25.2019 48.4974 24.3398C48.552 23.4669 48.5793 22.6048 48.5793 21.7536C48.5793 20.7824 48.5138 19.9476 48.3824 19.2493C48.2515 18.5509 48.011 17.978 47.6614 17.5306C47.3222 17.0723 46.8471 16.734 46.2347 16.5157C45.6337 16.2975 44.8576 16.1884 43.9065 16.1884C43.2182 16.1884 42.6335 16.3248 42.1525 16.5976C41.6715 16.8595 41.2724 17.2196 40.9555 17.6779C40.6386 18.1362 40.3872 18.6709 40.2013 19.282C40.0265 19.8822 39.8899 20.526 39.7915 21.2135C39.7041 21.89 39.6439 22.5884 39.6111 23.3086C39.5784 24.018 39.551 24.7054 39.5292 25.371C39.5182 26.0367 39.4964 26.6642 39.4636 27.2534C39.4308 27.8318 39.3652 28.3337 39.2668 28.7593ZM81.4354 28.0555C80.9767 28.5138 80.4793 28.9339 79.9438 29.3158C79.4191 29.6869 78.889 30.0088 78.3534 30.2816C77.8179 30.5544 77.2987 30.7726 76.7959 30.9363C76.293 31.1 75.8339 31.1928 75.4183 31.2146C75.1892 31.2364 74.8937 31.2309 74.5331 31.1982C74.1726 31.1764 73.8225 31.0836 73.4838 30.9199C73.156 30.7563 72.8719 30.4998 72.6314 30.1506C72.3909 29.8014 72.2704 29.3049 72.2704 28.6611V26.7132C71.6694 27.3025 71.0356 27.87 70.3687 28.4156C69.7022 28.9503 69.0134 29.4304 68.3028 29.856C67.6035 30.2706 66.893 30.598 66.1715 30.8381C65.45 31.0891 64.7398 31.2146 64.0401 31.2146C63.144 31.2146 62.357 31.0127 61.6792 30.6089C61.0018 30.2161 60.433 29.7032 59.9743 29.0703C59.5151 28.4374 59.1709 27.7281 58.9414 26.9424C58.7118 26.1567 58.5968 25.3765 58.5968 24.6017C58.5968 24.0234 58.6408 23.4559 58.7281 22.8994C58.8154 22.332 58.925 21.7973 59.0559 21.2953C59.1982 20.7933 59.3565 20.3405 59.5315 19.9368C59.7174 19.533 59.9084 19.2002 60.1052 18.9383C60.4662 18.4472 60.925 17.9725 61.4823 17.5142C62.0402 17.0559 62.6466 16.6249 63.3023 16.2211C63.9692 15.8173 64.6743 15.4518 65.4172 15.1244C66.1606 14.7971 66.8984 14.5134 67.6308 14.2733C68.3742 14.0332 69.0952 13.8477 69.7949 13.7167C70.4946 13.5858 71.1393 13.5203 71.7294 13.5203C72.3418 13.5203 73.0633 13.5531 73.8939 13.6185C74.7245 13.6731 75.6697 13.7931 76.7304 13.9786C76.6863 15.2335 76.6481 16.3411 76.6154 17.3014C76.5826 18.2617 76.5553 19.1238 76.5335 19.8876C76.5117 20.6406 76.4953 21.3281 76.4844 21.9501C76.4735 22.572 76.4676 23.1777 76.4676 23.7669C76.4676 24.3671 76.4567 24.9564 76.4349 25.5348C76.4131 26.1131 76.4567 26.6314 76.5663 27.0897C76.6754 27.548 76.8886 27.9191 77.2055 28.2028C77.5337 28.4865 78.0361 28.6284 78.714 28.6284C79.1186 28.6284 79.5501 28.5793 80.0092 28.4811C80.4684 28.3719 80.9439 28.2301 81.4354 28.0555ZM72.3036 16.3357C71.6476 16.1611 70.9479 16.0411 70.205 15.9756C69.4617 15.8992 68.7511 15.861 68.0732 15.861C67.7018 15.861 67.3467 15.8719 67.0075 15.8937C66.6797 15.9156 66.3792 15.9428 66.106 15.9756C65.8327 16.0083 65.5923 16.052 65.3845 16.1066C65.1767 16.1502 65.0185 16.2047 64.9089 16.2702C64.7125 16.3685 64.4829 16.6085 64.2206 16.9904C63.9583 17.3614 63.7069 17.8252 63.4664 18.3817C63.2259 18.9383 63.0181 19.5657 62.8435 20.2641C62.6794 20.9625 62.5975 21.6827 62.5975 22.4248C62.5975 23.134 62.7012 23.8488 62.909 24.569C63.1167 25.2783 63.4173 25.9167 63.8105 26.4841C64.2151 27.0515 64.7071 27.5153 65.2863 27.8754C65.8764 28.2246 66.5488 28.3992 67.303 28.3992C68.0132 28.3992 68.6419 28.2846 69.1884 28.0555C69.7349 27.8263 70.2104 27.5153 70.6146 27.1225C71.0192 26.7187 71.3525 26.2495 71.6148 25.7148C71.8881 25.1801 72.1067 24.6017 72.2704 23.9797C72.2704 23.5214 72.2704 23.0358 72.2704 22.5229C72.2704 21.9991 72.2704 21.4263 72.2704 20.8043C72.2704 20.1823 72.2704 19.5057 72.2704 18.7746C72.2818 18.0325 72.2927 17.2196 72.3036 16.3357ZM88.6496 28.7593L84.7311 31.5747C84.8293 29.4686 84.9061 27.6735 84.9607 26.1895C85.0152 24.7054 85.0534 23.4832 85.0753 22.5229C85.108 21.399 85.1248 20.4714 85.1248 19.7403C85.1793 18.4199 84.9989 17.3887 84.5833 16.6467C84.1682 15.8937 83.534 15.5173 82.6816 15.5173C82.4084 15.5173 82.1187 15.5609 81.8128 15.6482C81.5177 15.7246 81.2008 15.8392 80.8617 15.992C81.2881 15.6864 81.7364 15.3754 82.206 15.059C82.6761 14.7316 83.1571 14.437 83.649 14.1751C84.141 13.9132 84.6329 13.7004 85.1248 13.5367C85.6272 13.3621 86.1191 13.2748 86.6001 13.2748C87.0593 13.2748 87.4744 13.3676 87.8463 13.5531C88.2286 13.7386 88.5182 14.0496 88.7151 14.4861C88.8901 14.8571 89.0101 15.2718 89.076 15.7301C89.1524 16.1884 89.2015 16.6903 89.2234 17.236C89.7807 16.6467 90.404 16.0956 91.0924 15.5828C91.792 15.0699 92.519 14.6334 93.2732 14.2733C94.0271 13.9132 94.7868 13.6458 95.5519 13.4712C96.3171 13.2966 97.0385 13.253 97.7164 13.3403C98.2079 13.4057 98.7162 13.5422 99.2408 13.7495C99.7764 13.9568 100.263 14.2733 100.7 14.6989C101.148 15.1244 101.509 15.6864 101.782 16.3848C102.055 17.0723 102.181 17.9343 102.159 18.971C102.126 20.1932 102.072 21.3171 101.995 22.3429C101.919 23.3577 101.88 24.258 101.88 25.0437C101.88 25.5129 101.919 25.9603 101.995 26.3859C102.072 26.8006 102.203 27.1661 102.389 27.4826C102.586 27.7881 102.848 28.0337 103.176 28.2192C103.504 28.4047 103.914 28.4974 104.405 28.4974C104.843 28.4974 105.302 28.4156 105.783 28.2519C106.274 28.0773 106.766 27.8154 107.258 27.4662C106.46 28.1755 105.728 28.7702 105.062 29.2504C104.405 29.7305 103.794 30.1179 103.225 30.4125C102.657 30.7072 102.126 30.9145 101.634 31.0345C101.143 31.1654 100.667 31.2255 100.208 31.2146C99.7491 31.2037 99.3558 31.1109 99.0276 30.9363C98.6998 30.7726 98.4375 30.5162 98.241 30.167C98.0442 29.8069 97.9074 29.3486 97.831 28.7921C97.7546 28.2246 97.7273 27.5317 97.7491 26.7132C97.7819 25.9931 97.8255 25.2019 97.8801 24.3398C97.9347 23.4669 97.9619 22.6048 97.9619 21.7536C97.9619 20.7824 97.8965 19.9476 97.7655 19.2493C97.6341 18.5509 97.3936 17.978 97.044 17.5306C96.7053 17.0723 96.2298 16.734 95.6178 16.5157C95.0163 16.2975 94.2403 16.1884 93.2896 16.1884C92.6008 16.1884 92.0162 16.3248 91.5352 16.5976C91.0542 16.8595 90.6554 17.2196 90.3381 17.6779C90.0212 18.1362 89.7698 18.6709 89.5839 19.282C89.4093 19.8822 89.2725 20.526 89.1742 21.2135C89.087 21.89 89.0265 22.5884 88.9938 23.3086C88.961 24.018 88.9338 24.7054 88.9119 25.371C88.901 26.0367 88.8792 26.6642 88.8465 27.2534C88.8137 27.8318 88.7478 28.3337 88.6496 28.7593Z" fill="#444B59"/>
<path d="M116.468 3.08744C116.468 3.44387 116.407 3.77369 116.284 4.0769C116.164 4.38011 116.002 4.65675 115.797 4.90679C115.591 5.15414 115.354 5.37359 115.085 5.56509C114.816 5.75658 114.534 5.91753 114.238 6.04785C113.942 6.17817 113.641 6.2766 113.335 6.3431C113.031 6.4096 112.742 6.44283 112.468 6.44283C112.063 6.44283 111.692 6.37503 111.357 6.23935C111.024 6.10639 110.737 5.92017 110.498 5.68078C110.258 5.44139 110.071 5.15678 109.938 4.82696C109.807 4.49714 109.742 4.13673 109.742 3.74574C109.742 3.40263 109.802 3.07943 109.922 2.77622C110.044 2.47033 110.208 2.19105 110.414 1.93837C110.622 1.68301 110.861 1.45426 111.133 1.25212C111.407 1.04998 111.696 0.87973 112 0.741407C112.307 0.600445 112.618 0.492713 112.935 0.418251C113.255 0.343789 113.563 0.306537 113.858 0.306537C114.125 0.306537 114.374 0.341107 114.606 0.410289C114.838 0.476747 115.05 0.572538 115.241 0.697535C115.436 0.819892 115.609 0.967517 115.761 1.14041C115.913 1.31062 116.041 1.49948 116.144 1.70694C116.251 1.91176 116.331 2.13121 116.384 2.36528C116.44 2.59935 116.468 2.84004 116.468 3.08744ZM112.867 0.837198C112.521 0.837198 112.219 0.901016 111.96 1.0287C111.704 1.15369 111.491 1.32394 111.321 1.53937C111.15 1.75483 111.022 2.00617 110.937 2.29346C110.854 2.57806 110.813 2.87998 110.813 3.19915C110.813 3.60079 110.884 3.96916 111.025 4.3043C111.166 4.63944 111.359 4.92803 111.604 5.17011C111.852 5.41214 112.144 5.601 112.48 5.73664C112.815 5.86964 113.179 5.93614 113.571 5.93614C113.784 5.93614 113.977 5.90157 114.15 5.83243C114.323 5.76325 114.478 5.67014 114.614 5.5531C114.749 5.43343 114.867 5.2951 114.966 5.13818C115.067 4.97861 115.149 4.8097 115.213 4.63148C115.277 4.45327 115.325 4.27107 115.357 4.08486C115.389 3.89604 115.405 3.71251 115.405 3.53429C115.405 3.15926 115.344 2.80815 115.221 2.48097C115.099 2.15379 114.925 1.86919 114.702 1.62716C114.478 1.38244 114.21 1.1896 113.898 1.04864C113.587 0.907679 113.243 0.837198 112.867 0.837198ZM120.228 5.77255C120.122 5.86033 120.001 5.9521 119.865 6.04785C119.732 6.14096 119.589 6.22607 119.437 6.30321C119.285 6.38299 119.125 6.44815 118.958 6.49869C118.793 6.54922 118.625 6.57449 118.454 6.57449C118.404 6.57449 118.353 6.56787 118.302 6.55454C118.252 6.54126 118.206 6.51733 118.166 6.48276C118.127 6.45083 118.093 6.40692 118.067 6.35106C118.043 6.29521 118.032 6.22472 118.035 6.13962C118.035 6.04119 118.04 5.79384 118.051 5.39752C118.053 5.22994 118.057 5.02114 118.063 4.77111C118.071 4.52111 118.079 4.2192 118.087 3.86545C118.097 3.51166 118.109 3.10072 118.123 2.63258C118.136 2.1618 118.15 1.62318 118.166 1.01671C118.097 1.02471 118.029 1.03004 117.963 1.03268C117.896 1.03268 117.828 1.03268 117.759 1.03268C117.658 1.03268 117.543 1.03004 117.415 1.02471C117.29 1.01939 117.159 1.00875 117.023 0.992785L118.035 0.354432C118.242 0.38368 118.438 0.403627 118.622 0.41427C118.806 0.424913 118.958 0.430235 119.078 0.430235C119.211 0.430235 119.339 0.426212 119.461 0.418251C119.587 0.407607 119.709 0.396964 119.829 0.38632C119.949 0.373037 120.067 0.362394 120.185 0.354432C120.302 0.343789 120.42 0.338467 120.54 0.338467C120.775 0.338467 121 0.365034 121.216 0.418251C121.431 0.471468 121.621 0.555232 121.783 0.669627C121.946 0.781341 122.075 0.927625 122.171 1.10848C122.27 1.28937 122.319 1.50748 122.319 1.7628C122.319 1.89848 122.296 2.0381 122.251 2.18174C122.205 2.32271 122.131 2.46501 122.027 2.60865C121.923 2.74962 121.784 2.89058 121.611 3.03158C121.441 3.16986 121.229 3.30286 120.976 3.43054C121.24 3.67525 121.48 3.8947 121.695 4.08888C121.914 4.28302 122.111 4.45591 122.287 4.60756C122.463 4.75916 122.618 4.89082 122.754 5.00254C122.89 5.11157 123.01 5.20602 123.114 5.2858C123.354 5.47198 123.539 5.59966 123.669 5.66884C123.736 5.70073 123.807 5.72868 123.881 5.7526C123.945 5.77389 124.017 5.79249 124.097 5.80846C124.18 5.82442 124.266 5.83243 124.357 5.83243C124.413 5.83243 124.467 5.8284 124.521 5.82044C124.574 5.8098 124.627 5.79383 124.68 5.77255C124.553 5.87098 124.427 5.96409 124.305 6.05183C124.182 6.13962 124.058 6.21542 123.933 6.27928C123.811 6.34574 123.685 6.39762 123.558 6.43487C123.432 6.47476 123.303 6.49471 123.17 6.49471C123.095 6.49471 123.023 6.48675 122.954 6.47078C122.885 6.4575 122.814 6.43487 122.742 6.40294C122.67 6.37105 122.597 6.32982 122.523 6.27928C122.45 6.22875 122.373 6.16623 122.291 6.09172C122.181 6.0013 122.02 5.86168 121.807 5.67282C121.717 5.59304 121.61 5.49724 121.488 5.38553C121.365 5.27382 121.224 5.14484 121.064 4.99856C120.904 4.85223 120.723 4.68734 120.52 4.50381C120.32 4.31763 120.098 4.10883 119.853 3.8774C120.045 3.80557 120.226 3.71913 120.396 3.61806C120.567 3.51699 120.715 3.40129 120.84 3.27097C120.968 3.14061 121.068 2.99567 121.14 2.83606C121.214 2.67381 121.252 2.4956 121.252 2.30142C121.252 2.06735 121.204 1.86257 121.108 1.68699C121.012 1.51146 120.887 1.36518 120.732 1.24814C120.58 1.13111 120.407 1.04332 120.213 0.984781C120.018 0.926284 119.822 0.897036 119.625 0.897036C119.465 0.897036 119.312 0.904997 119.166 0.920962L119.01 5.77255C119.071 5.81776 119.144 5.84969 119.23 5.8683C119.315 5.88694 119.403 5.89625 119.493 5.89625C119.584 5.89625 119.673 5.89092 119.761 5.88028C119.849 5.867 119.928 5.85237 119.997 5.83641C120.079 5.81776 120.157 5.79652 120.228 5.77255ZM131.55 5.65287C131.348 5.82308 131.168 5.95608 131.011 6.05183C130.856 6.14758 130.723 6.2194 130.611 6.2673C130.483 6.32315 130.371 6.35773 130.275 6.37105C130.142 6.4003 129.995 6.39498 129.832 6.35508C129.672 6.31783 129.503 6.25531 129.324 6.16757C129.148 6.07978 128.969 5.97205 128.785 5.84437C128.601 5.71669 128.42 5.58105 128.241 5.43741C128.063 5.29112 127.89 5.14086 127.722 4.98657C127.557 4.83228 127.404 4.68466 127.262 4.5437C127.124 4.40273 127 4.27372 126.891 4.15668C126.784 4.037 126.7 3.93857 126.639 3.86143C126.586 3.79493 126.543 3.74041 126.511 3.69788C126.481 3.65263 126.467 3.60875 126.467 3.56618C126.467 3.52629 126.486 3.48108 126.523 3.43054C126.56 3.37737 126.624 3.30818 126.715 3.22308C126.763 3.17787 126.825 3.11803 126.902 3.04352C126.98 2.96642 127.065 2.87998 127.158 2.78419C127.254 2.68844 127.354 2.58603 127.458 2.47699C127.565 2.36528 127.668 2.25222 127.77 2.13787C127.874 2.02348 127.972 1.90912 128.066 1.79473C128.161 1.68037 128.244 1.57264 128.313 1.47157C128.385 1.36782 128.442 1.27471 128.485 1.19229C128.528 1.10714 128.549 1.03536 128.549 0.97682C128.549 0.899676 128.466 0.861125 128.301 0.861125C128.237 0.861125 128.176 0.859784 128.118 0.857144C128.067 0.857144 128.015 0.857144 127.961 0.857144C127.911 0.854462 127.871 0.855803 127.842 0.861125C127.98 0.781341 128.11 0.706838 128.229 0.637697C128.352 0.565876 128.471 0.504697 128.585 0.454162C128.702 0.400945 128.819 0.359712 128.937 0.330464C129.054 0.298575 129.178 0.28261 129.308 0.28261C129.367 0.28261 129.425 0.28525 129.484 0.290572C129.545 0.293254 129.609 0.301215 129.676 0.314499C129.553 0.529965 129.428 0.725484 129.3 0.901017C129.175 1.07391 129.048 1.23352 128.921 1.3798C128.795 1.52609 128.67 1.66043 128.545 1.78274C128.423 1.9051 128.301 2.02213 128.181 2.13385C128.061 2.24292 127.945 2.34931 127.834 2.45307C127.722 2.55678 127.615 2.66451 127.514 2.77622C127.466 2.82412 127.445 2.88127 127.45 2.94777C127.458 3.01427 127.507 3.09808 127.598 3.19915C127.739 3.35608 127.895 3.52763 128.066 3.71381C128.239 3.89734 128.423 4.08222 128.617 4.26839C128.814 4.45461 129.019 4.63547 129.232 4.81104C129.448 4.98657 129.668 5.14216 129.892 5.27784C130.115 5.41348 130.342 5.52251 130.571 5.60498C130.803 5.6848 131.033 5.72469 131.263 5.72469C131.383 5.72469 131.478 5.70073 131.55 5.65287ZM127.354 5.601C127.197 5.70739 127.042 5.80582 126.891 5.89625C126.739 5.98667 126.592 6.06646 126.451 6.13564C126.312 6.20214 126.181 6.25665 126.055 6.29923C125.933 6.34176 125.82 6.36837 125.715 6.37901C125.612 6.38697 125.52 6.38831 125.44 6.38299C125.36 6.38035 125.293 6.36171 125.24 6.32714C125.19 6.29521 125.151 6.24337 125.124 6.17155C125.098 6.09705 125.084 5.99468 125.084 5.86432C125.084 5.79782 125.084 5.68212 125.084 5.51723C125.087 5.3523 125.088 5.15678 125.088 4.93071C125.091 4.70196 125.093 4.45327 125.096 4.18463C125.099 3.91331 125.101 3.63934 125.104 3.36274C125.107 3.0861 125.109 2.81612 125.112 2.5528C125.115 2.28679 125.117 2.0461 125.12 1.83064C125.123 1.61517 125.125 1.43432 125.128 1.28803C125.131 1.13907 125.133 1.04332 125.136 1.00075C125.139 0.952893 125.128 0.913001 125.104 0.881071C125.083 0.849141 125.052 0.823873 125.012 0.805268C124.975 0.783981 124.93 0.769357 124.876 0.761354C124.823 0.753392 124.767 0.749411 124.709 0.749411C124.615 0.749411 124.514 0.758714 124.405 0.777319C124.298 0.793284 124.197 0.81323 124.101 0.837198C124.234 0.752051 124.366 0.672268 124.497 0.597806C124.63 0.520662 124.763 0.454162 124.896 0.398305C125.03 0.342448 125.166 0.298576 125.304 0.266645C125.443 0.234715 125.585 0.21875 125.731 0.21875C125.79 0.21875 125.846 0.222731 125.899 0.230734C125.953 0.236056 125.999 0.2467 126.04 0.262665C126.082 0.275948 126.115 0.295894 126.139 0.322502C126.163 0.346429 126.175 0.377018 126.175 0.41427C126.175 0.51534 126.174 0.765376 126.171 1.16434C126.171 1.33459 126.17 1.54603 126.167 1.79871C126.167 2.05143 126.166 2.35728 126.163 2.71639C126.163 3.07281 126.162 3.48774 126.159 3.9612C126.159 4.43198 126.159 4.97329 126.159 5.58503C126.298 5.60896 126.424 5.62626 126.539 5.63691C126.656 5.64755 126.761 5.65287 126.855 5.65287C126.937 5.65287 127.009 5.65019 127.07 5.64487C127.132 5.63955 127.184 5.63427 127.226 5.62895C127.274 5.62094 127.317 5.61164 127.354 5.601ZM135.866 0.422232C135.914 0.443518 135.937 0.475448 135.934 0.51798C135.934 0.560553 135.917 0.609748 135.882 0.665605C135.848 0.721462 135.798 0.781342 135.735 0.84516C135.673 0.906339 135.605 0.968858 135.531 1.03268C135.469 1.08321 135.399 1.13773 135.319 1.19627C135.249 1.24944 135.164 1.31062 135.063 1.3798C134.964 1.4463 134.851 1.51942 134.724 1.59925C134.795 1.53275 134.846 1.47287 134.875 1.41969C134.904 1.36648 134.919 1.31728 134.919 1.27207C134.919 1.21089 134.895 1.15767 134.847 1.11246C134.8 1.06725 134.738 1.03004 134.664 1.00075C134.589 0.968858 134.505 0.94359 134.412 0.924943C134.321 0.906338 134.232 0.893055 134.144 0.885052C134.059 0.874408 133.98 0.867788 133.908 0.865106C133.836 0.862466 133.783 0.861125 133.749 0.861125C133.607 0.861125 133.465 0.875749 133.321 0.904997C133.177 0.931606 133.048 0.97816 132.933 1.04466C132.818 1.10848 132.725 1.19493 132.653 1.304C132.581 1.41039 132.546 1.54339 132.546 1.70296C132.546 1.88385 132.596 2.03944 132.697 2.16976C132.799 2.29744 132.932 2.40915 133.097 2.5049C133.262 2.60065 133.448 2.68446 133.657 2.75628C133.867 2.8281 134.079 2.89724 134.292 2.96374C134.508 3.02756 134.716 3.09276 134.915 3.15926C135.118 3.22572 135.294 3.30156 135.443 3.38667C135.64 3.5037 135.781 3.64068 135.866 3.79761C135.954 3.9519 135.998 4.11545 135.998 4.28834C135.998 4.51177 135.938 4.72459 135.819 4.92673C135.701 5.12619 135.547 5.31241 135.355 5.4853C135.166 5.65819 134.95 5.81378 134.708 5.9521C134.465 6.09042 134.22 6.20876 133.972 6.30719C133.724 6.40562 133.485 6.48142 133.253 6.5346C133.021 6.58781 132.82 6.61442 132.649 6.61442C132.428 6.61442 132.234 6.5918 132.066 6.54658C131.898 6.50401 131.758 6.45217 131.646 6.391C131.535 6.32982 131.451 6.2673 131.394 6.20344C131.341 6.13698 131.318 6.08376 131.327 6.04387C131.332 5.99598 131.356 5.94414 131.399 5.88828C131.444 5.82975 131.51 5.76723 131.598 5.70073C131.686 5.63427 131.797 5.56111 131.93 5.48132C132.063 5.4015 132.225 5.31375 132.413 5.21796C132.336 5.29246 132.302 5.3616 132.31 5.42546C132.318 5.48928 132.355 5.54648 132.421 5.59702C132.491 5.64755 132.58 5.69276 132.689 5.73266C132.801 5.76991 132.918 5.80184 133.041 5.8284C133.166 5.85237 133.291 5.87098 133.417 5.88426C133.542 5.89759 133.652 5.90421 133.749 5.90421C133.911 5.90421 134.072 5.88694 134.232 5.85237C134.394 5.81776 134.54 5.76325 134.667 5.68878C134.798 5.61164 134.903 5.51191 134.983 5.38955C135.066 5.26451 135.107 5.11425 135.107 4.93868C135.107 4.83497 135.086 4.72857 135.043 4.6195C135.001 4.50779 134.927 4.40005 134.823 4.29634C134.722 4.19259 134.585 4.0955 134.412 4.00507C134.238 3.91197 134.023 3.83218 133.764 3.76568C133.37 3.66197 133.037 3.55558 132.765 3.44651C132.496 3.33479 132.279 3.21642 132.114 3.09142C131.951 2.96374 131.838 2.82542 131.774 2.67649C131.71 2.52485 131.686 2.35598 131.702 2.16976C131.718 1.95434 131.783 1.75882 131.898 1.58328C132.013 1.40507 132.158 1.2468 132.334 1.10848C132.512 0.967517 132.711 0.845159 132.929 0.741407C133.15 0.637697 133.374 0.552592 133.6 0.486092C133.83 0.41691 134.052 0.366375 134.268 0.334445C134.483 0.299875 134.676 0.28261 134.843 0.28261C134.971 0.28261 135.091 0.287932 135.203 0.298575C135.317 0.309177 135.419 0.321161 135.507 0.334445C135.597 0.34777 135.673 0.363734 135.735 0.382339C135.796 0.398305 135.84 0.411588 135.866 0.422232Z" fill="#2B6777"/>
</svg>
